<svg xmlns="http://www.w3.org/2000/svg" viewBox="0 0 64 64">
  <rect width="64" height="64" fill="#120304"/>
  <rect x="6" y="44" width="52" height="14" fill="#ff5a1f"/>
  <rect x="6" y="42" width="52" height="3" fill="#ffb347"/>
  <rect x="8" y="8" width="48" height="48" rx="8" fill="#220609" stroke="#5a2230" stroke-width="4"/>

  <rect x="18" y="15" width="28" height="24" fill="#f5f1f1"/>
  <rect x="20" y="17" width="24" height="20" fill="#fffdfd"/>
  <rect x="16" y="17" width="2" height="12" fill="#3a3131"/>
  <rect x="46" y="17" width="2" height="12" fill="#3a3131"/>

  <rect x="22" y="22" width="4" height="4" fill="#2563eb"/>
  <rect x="38" y="22" width="4" height="4" fill="#2563eb"/>
  <rect x="24" y="30" width="16" height="3" fill="#c83c3c"/>

  <rect x="20" y="39" width="4" height="9" fill="#f5f1f1"/>
  <rect x="28" y="39" width="4" height="12" fill="#f5f1f1"/>
  <rect x="36" y="39" width="4" height="10" fill="#f5f1f1"/>
  <rect x="44" y="39" width="4" height="8" fill="#f5f1f1"/>

  <rect x="10" y="12" width="5" height="5" fill="#ffd54a"/>
  <rect x="12" y="14" width="1" height="1" fill="#fff2a8"/>
  <rect x="49" y="13" width="3" height="3" fill="#ffcf40"/>
  <rect x="50" y="33" width="2" height="2" fill="#fff2a8"/>
</svg>
